.
 
http://www.scenetime.com    -   SceneTime [ We been having it ] !!!


How come you press harder on a remote control when you know the battery is dead? so you better seed to get speed ;)

        Seed back for speed


...................................NFO:.................................................Another Fine Release Brought to you from;

===================================================================================================
BBBBBBBBBBBBBBBBB   BBBBBBBBBBBBBBBBB                     RRRRRRRRRRRRRRRRR           GGGGGGGGGGGGG
B::::::::::::::::B  B::::::::::::::::B                    R::::::::::::::::R       GGG::::::::::::G
B::::::BBBBBB:::::B B::::::BBBBBB:::::B                   R::::::RRRRRR:::::R    GG:::::::::::::::G
BB:::::B     B:::::BBB:::::B     B:::::B                  RR:::::R     R:::::R  G:::::GGGGGGGG::::G
  B::::B     B:::::B  B::::B     B:::::Bnnnn  nnnnnnnn      R::::R     R:::::R G:::::G       GGGGGG
  B::::B     B:::::B  B::::B     B:::::Bn:::nn::::::::nn    R::::R     R:::::RG:::::G              
  B::::BBBBBB:::::B   B::::BBBBBB:::::B n::::::::::::::nn   R::::RRRRRR:::::R G:::::G              
  B:::::::::::::BB    B:::::::::::::BB  nn:::::::::::::::n  R:::::::::::::RR  G:::::G    GGGGGGGGGG
  B::::BBBBBB:::::B   B::::BBBBBB:::::B   n:::::nnnn:::::n  R::::RRRRRR:::::R G:::::G    G::::::::G
  B::::B     B:::::B  B::::B     B:::::B  n::::n    n::::n  R::::R     R:::::RG:::::G    GGGGG::::G
  B::::B     B:::::B  B::::B     B:::::B  n::::n    n::::n  R::::R     R:::::RG:::::G        G::::G
  B::::B     B:::::B  B::::B     B:::::B  n::::n    n::::n  R::::R     R:::::R G:::::G       G::::G
BB:::::BBBBBB::::::BBB:::::BBBBBB::::::B  n::::n    n::::nRR:::::R     R:::::R  G:::::GGGGGGGG::::G
B:::::::::::::::::B B:::::::::::::::::B   n::::n    n::::nR::::::R     R:::::R   GG:::::::::::::::G
B::::::::::::::::B  B::::::::::::::::B    n::::n    n::::nR::::::R     R:::::R     GGG::::::GGG:::G
BBBBBBBBBBBBBBBBB   BBBBBBBBBBBBBBBBB     nnnnnn    nnnnnnRRRRRRRR     RRRRRRR        GGGGGG   GGGG
===================================================================================================
                        Blitz 2011 576p HQ READNFO x264 AC3-BBnRG
===================================================================================================
                                                                                               
 ___     _                    ___       __    
| _ \___| |___ __ _ ___ ___  |_ _|_ _  / _|___
|   / -_) / -_) _` (_-</ -_)  | || ' \|  _/ _ \
|_|_\___|_\___\__,_/__/\___| |___|_||_|_| \___/
===================================================================================================

Audio

Format                           : AC-3
Format/Info                      : Audio Coding 3
Mode extension                   : CM (complete main)
Codec ID                         : ac-3
Duration                         : 1h 37mn
Bit rate mode                    : Constant
Bit rate                         : 128 Kbps
Channel(s)                       : 2 channels
Channel positions                : Front: L R
Stream size                      : 88.8 MiB (22%)
 
Video

Format                           : AVC
Format/Info                      : Advanced Video Codec
Format profile                   : High@L4.1
Format settings, CABAC           : Yes
Format settings, ReFrames        : 4 frames
Codec ID                         : avc1
Codec ID/Info                    : Advanced Video Coding
Duration                         : 1h 37mn
Bit rate mode                    : Variable
Bit rate                         : 446 Kbps
Maximum bit rate                 : 2 827 Kbps
Width                            : 850 pixels
Height                           : 360 pixels
Display aspect ratio             : 2.35:1
Frame rate                       : 24.000 fps
Stream size                      : 309 MiB (77%)
Writing library                  : x264 core 114 r1924 08d04a4
 
 ___     _                    ___                 _      _   _          
| _ \___| |___ __ _ ___ ___  |   \ ___ ___ __ _ _(_)_ __| |_(_)___ _ _  
|   / -_) / -_) _` (_-</ -_) | |) / -_|_-</ _| '_| | '_ \  _| / _ \ ' \
|_|_\___|_\___\__,_/__/\___| |___/\___/__/\__|_| |_| .__/\__|_\___/_||_|
                                                   |_|                  
===================================================================================================
  
http://www.imdb.com/title/tt1297919/

A tough cop is dispatched to take down a serial killer who has been targeting police officers.
 
  ___                     _  _     _          
 / __|_ _ ___ _  _ _ __  | \| |___| |_ ___ ___
| (_ | '_/ _ \ || | '_ \ | .` / _ \  _/ -_|_-<
 \___|_| \___/\_,_| .__/ |_|\_\___/\__\___/__/
                  |_|                        
===================================================================================================

ViDEO SOURCE: 720p TWiZTED, thanks!
AUDiO SOURCE: 720p TWiZTED, thanks!

BBnRG brining the internetz yet another release; blitz 576p!

not much work was needed if I'm honest, but I did use a few filters, sharpeness etc but the colors
were left as they were because I don't believe in changing them unless it's really needed. i encoded to 
a smaller file size, now. the readnfo is because this is my first ever encode under the release
group BBnRG, expect a lot more from me in the near future! :P you will not find another release like this on
the interntz, this is one of a kid, great audio and video. a lot of effort has been put into this so I hope
you all appreciate it as much as we do. take it or leave it, your choice! :P

[IMG]http://lookpic.com/c1/i2/11/bxLS93t.png[/IMG]

[IMG]http://lookpic.com/c1/i2/1147/junPQaS.png[/IMG]

[IMG]http://lookpic.com/c1/i2/1435/jgbQMtmS.png[/IMG]

[IMG]http://lookpic.com/c1/i2/2792/mKc5LxDQ.png[/IMG]

[IMG]http://lookpic.com/c1/i2/2065/64XXOiko.png[/IMG]

[IMG]http://lookpic.com/c1/i2/3790/06D080BP.png[/IMG]

[IMG]http://lookpic.com/c1/i2/433/HIghgHZf.png[/IMG]

[IMG]http://lookpic.com/c1/i2/216/afPxoWy5.png[/IMG]
 
  ___             _      
 / __|_ _ ___ ___| |_ ___
| (_ | '_/ -_) -_)  _|_ /
 \___|_| \___\___|\__/__|
===================================================================================================
 
IMAGiNE, NiCkkkDoN, Hive-CM8 & to all other p2p teams out there keeping the p2p scene alive, keep rocking! :P